:SAMPLES-PER-SECOND 30
:FRAME-RANGE 1-564
:FULLY-SPECIFIED
:DEGREES
194
root  27.37 38.81 73.4952 172.755 -17.3251 -177.195
RightUpLeg  -6.06555 -1.39874 -3.33687
RightLeg  -9.84197 -9.39426 -1.22327
RightFoot  1.80988 -1.11399 9.7494
RightToes  -1.74624e-010 0 -3.6325e-017
Spine  10.3148 0.659824 5.06791
Spine1  -0.0442072 1.48927 -1.46022
HEad  2.1461 -4.06974 -4.7995
LeftShoulder1  3.25178 -4.97069 -32.3689
LeftArm  11.1471 9.05565 -18.6182
LeftForeArm  -20.3874 -66.8442 -30.3427
LeftHand  -0.146145 -0.512008 2.95109
RightShoulder  4.54461 3.47427 56.7933
RightArm  5.65553 2.09857 -6.06416
RightForeArm  -8.79054 62.306 23.1418
RightHand  4.00534 20.8564 16.9194
LeftUpLeg  28.2752 9.31245 12.1104
LeftLeg  -2.17457 6.0358 1.54015
LeftFoot  -16.4596 -0.292731 -8.73946
LeftToes  -6.43926e-010 8.38805e-011 -3.16407e-011
195
root  27.5932 38.7919 72.0837 172.598 -14.3526 -175.965
RightUpLeg  -4.95654 0.106688 -0.640984
RightLeg  -10.1953 -8.26767 -1.30185
RightFoot  7.18917 -1.81367 11.3878
RightToes  -1.74624e-010 0 -3.6325e-017
Spine  9.68415 0.173827 5.95967
Spine1  0.972621 0.992712 -0.62145
HEad  1.92042 -1.80422 -4.91092
LeftShoulder1  3.28172 -4.997 -32.6024
LeftArm  10.8447 9.52042 -17.9199
LeftForeArm  -19.328 -65.8675 -28.6781
LeftHand  -0.219251 -2.84247 3.31745
RightShoulder  4.44773 3.1738 57.9863
RightArm  6.23565 2.0024 -6.1198
RightForeArm  -7.85222 62.2533 22.996
RightHand  3.93489 20.8236 16.639
LeftUpLeg  29.9431 10.0858 15.2403
LeftLeg  -0.235365 6.43882 1.45718
LeftFoot  -15.2129 -0.382656 -13.9501
LeftToes  -6.43926e-010 8.38805e-011 -3.16407e-011
196
root  27.8636 38.8396 70.6439 172.587 -10.8955 -174.816
RightUpLeg  -5.47759 1.00884 1.96631
RightLeg  -6.5566 -6.35353 -1.20422
RightFoot  8.17702 -1.93242 11.5286
RightToes  -1.74624e-010 0 -3.6325e-017
Spine  9.97498 -0.316946 6.93394
Spine1  0.70826 0.649815 -0.0356119
HEad  2.15716 1.26098 -5.29879
LeftShoulder1  3.27064 -4.88496 -32.9842
LeftArm  10.4238 11.1708 -16.7326
LeftForeArm  -20.0245 -65.1497 -27.6688
LeftHand  -0.125454 -3.41476 1.90191
RightShoulder  4.38831 2.93804 59.1904
RightArm  7.28326 1.74728 -6.04094
RightForeArm  -6.39589 62.2323 22.8339
RightHand  3.90063 20.7881 16.5151
LeftUpLeg  30.0771 10.6383 18.0125
LeftLeg  4.74907 7.50426 2.03718
LeftFoot  -12.7178 -0.163296 -19.7216
LeftToes  -6.43926e-010 8.38805e-011 -3.16407e-011
197
root  28.1633 38.9269 69.197 172.565 -7.55669 -173.979
RightUpLeg  -5.30186 1.98571 4.4806
RightLeg  -3.40006 -4.01687 -1.23444
RightFoot  7.87517 -1.66197 10.1146
RightToes  -1.74624e-010 0 -3.6325e-017
Spine  10.1017 -0.902364 7.59765
Spine1  0.794609 0.237365 0.184599
HEad  2.08184 4.86164 -5.8108
LeftShoulder1  3.27247 -4.82046 -33.3062
LeftArm  9.50498 13.3905 -15.4746
LeftForeArm  -21.8158 -64.5976 -27.0345
LeftHand  -0.0432367 -3.06119 0.824069
RightShoulder  4.46745 2.9252 60.258
RightArm  8.38698 1.62233 -5.82158
RightForeArm  -5.1451 62.4938 22.9967
RightHand  3.80701 20.5906 16.24
LeftUpLeg  27.7575 8.73355 18.5104
LeftLeg  13.6051 11.4447 3.81028
LeftFoot  -7.67006 0.739255 -21.419
LeftToes  -6.43926e-010 8.38805e-011 -3.16407e-011
198
root  28.3901 39.0292 67.8348 172.111 -5.28601 -172.959
RightUpLeg  -3.63147 2.67241 6.8947
RightLeg  -1.92191 -2.53866 -1.16723
RightFoot  7.08025 -1.18956 7.62567
RightToes  -1.74624e-010 0 -3.6325e-017
Spine  10.6665 -1.89156 8.7428
Spine1  0.997317 -0.452704 0.0933014
HEad  1.65089 8.03899 -6.12023
LeftShoulder1  3.29514 -4.84728 -33.4506
LeftArm  8.60886 15.2745 -14.6357
LeftForeArm  -23.1316 -64.051 -26.4022
LeftHand  0.0376992 -3.37487 -0.257146
RightShoulder  4.49449 2.91605 60.6608
RightArm  9.2998 1.57139 -5.45052
RightForeArm  -3.71466 63.0036 23.4244
RightHand  3.75453 20.4756 16.0865
LeftUpLeg  23.1959 9.39054 20.3177
LeftLeg  25.5921 10.3664 5.69309
LeftFoot  0.378541 0.897542 -8.75684
LeftToes  -6.43926e-010 8.38805e-011 -3.16407e-011
199
root  28.5755 39.0572 66.5953 171.656 -2.59117 -171.912
RightUpLeg  -1.80086 2.93713 9.088
RightLeg  -0.587422 -0.501375 -0.90518
RightFoot  4.84972 -0.911614 6.63539
RightToes  -1.74624e-010 0 -3.6325e-017
Spine  11.3356 -2.42437 10.9505
Spine1  1.27228 -0.323398 -1.01965
HEad  1.26584 10.2908 -6.24898
LeftShoulder1  3.32626 -4.84138 -33.8479
LeftArm  8.24969 15.3373 -14.0241
LeftForeArm  -26.0175 -62.846 -25.1065
LeftHand  0.120448 -3.52565 -1.32121
RightShoulder  4.4931 2.88331 60.9212
RightArm  9.77015 1.54638 -5.28504
RightForeArm  -3.07391 63.3988 23.8172
RightHand  3.72854 20.328 16.0688
LeftUpLeg  18.6614 10.3881 21.5347
LeftLeg  36.0576 5.63737 4.75109
LeftFoot  3.50806 0.108787 -0.998239
LeftToes  -6.43926e-010 8.38805e-011 -3.16407e-011
200
root  28.706 39.1766 65.3502 171.368 1.03601 -171.719
RightUpLeg  0.771191 3.2223 10.5574
RightLeg  -0.456059 2.47876 -1.20851
RightFoot  2.89845 -0.801071 6.56469
RightToes  -1.74624e-010 0 -3.6325e-017
Spine  12.1781 -2.25012 12.6261
Spine1  0.862774 0.462174 -2.65853
HEad  1.60879 12.3127 -6.25411
LeftShoulder1  3.27986 -4.69468 -33.9926
LeftArm  7.87033 15.2584 -14.2763
LeftForeArm  -28.4743 -61.3592 -23.6056
LeftHand  0.140702 -3.40852 -1.61501
RightShoulder  4.58034 3.00279 60.9563
RightArm  10.268 1.36827 -5.16838
RightForeArm  -3.32952 63.4847 23.946
RightHand  3.74793 20.326 16.1551
LeftUpLeg  14.9357 11.5961 20.9627
LeftLeg  43.7628 -0.316944 0.0718314
LeftFoot  -2.12261 0.164097 -1.8772
LeftToes  -6.43926e-010 8.38805e-011 -3.16407e-011
201
root  28.7936 39.3253 64.1312 171.117 4.6808 -171.948
RightUpLeg  3.55017 3.4009 11.4252
RightLeg  -0.778192 5.68651 -1.90179
RightFoot  1.37917 -0.72941 6.62067
RightToes  -1.74624e-010 0 -3.6325e-017
Spine  13.589 -1.95531 13.6572
Spine1  -0.519087 1.18664 -4.01899
HEad  2.46729 14.7269 -6.48642
LeftShoulder1  3.23082 -4.49587 -34.3677
LeftArm  7.47927 15.7793 -14.035
LeftForeArm  -29.9251 -60.5721 -22.8863
LeftHand  0.230163 -3.57485 -2.73271
RightShoulder  4.73057 3.21926 60.9272
RightArm  10.4885 1.14159 -5.09325
RightForeArm  -3.24265 63.5549 24.0207
RightHand  3.9372 20.476 16.8815
LeftUpLeg  11.1554 12.5874 19.2003
LeftLeg  48.6381 -2.55094 -2.67354
LeftFoot  -5.77768 0.186233 -3.1187
LeftToes  -6.43926e-010 8.38805e-011 -3.16407e-011
202
root  28.8129 39.4952 62.8997 170.733 7.12621 -172.119
RightUpLeg  6.57349 3.29694 11.8194
RightLeg  -1.52037 7.90843 -2.4707
RightFoot  0.26256 -0.604885 5.96454
RightToes  -1.74624e-010 0 -3.6325e-017
Spine  14.255 -2.17883 15.1265
Spine1  -1.10621 1.39094 -6.07967
HEad  2.59953 17.1995 -7.08448
LeftShoulder1  3.19286 -4.41007 -34.3257
LeftArm  7.00241 16.3263 -13.8856
LeftForeArm  -30.9744 -60.3088 -22.685
LeftHand  0.184273 -3.29173 -2.22895
RightShoulder  4.8968 3.44578 60.9987
RightArm  10.0482 1.15404 -4.86948
RightForeArm  -3.22024 63.6875 24.1781
RightHand  4.25026 20.7464 18.0457
LeftUpLeg  7.06976 12.3376 16.851
LeftLeg  50.7219 -1.62384 -1.67895
LeftFoot  -7.22744 0.124465 -2.25715
LeftToes  -6.43926e-010 8.38805e-011 -3.16407e-011
203
root  28.7853 39.6447 61.7648 170.338 8.25771 -172.718
RightUpLeg  9.01594 2.58747 11.0819
RightLeg  -1.81742 9.86581 -2.59819
RightFoot  -1.2173 -0.456892 5.05997
RightToes  -1.74624e-010 0 -3.6325e-017
Spine  15.4229 -2.55629 15.1321
Spine1  -2.22079 1.00288 -6.75141
HEad  2.30923 19.4203 -8.09973
LeftShoulder1  3.14366 -4.2308 -34.619
LeftArm  6.83059 16.5157 -13.7113
LeftForeArm  -32.8528 -60.1053 -22.5855
LeftHand  0.203103 -2.43192 -2.82647
RightShoulder  4.91858 3.5261 60.6158
RightArm  9.33058 1.23315 -4.68518
RightForeArm  -2.33363 64.1404 24.6423
RightHand  4.66341 21.1234 19.5241
LeftUpLeg  2.44153 10.645 13.7015
LeftLeg  50.8383 0.270679 0.813318
LeftFoot  -8.87969 0.0773506 -1.11832
LeftToes  -6.43926e-010 8.38805e-011 -3.16407e-011
204
root  28.8301 39.8245 60.5286 169.84 10.3462 -173.158
RightUpLeg  12.6003 2.7 11.0311
RightLeg  -3.75208 11.5286 -3.62905
RightFoot  -1.84424 -0.396169 4.61429
RightToes  -1.74624e-010 0 -3.6325e-017
Spine  15.8527 -2.07497 15.2919
Spine1  -2.332 1.448 -7.63314
HEad  2.1246 21.2045 -8.94184
LeftShoulder1  3.11636 -4.12359 -34.828
LeftArm  7.01684 16.3562 -13.7434
LeftForeArm  -34.376 -59.6523 -22.2318
LeftHand  0.290091 -2.61716 -4.00901
RightShoulder  4.69654 3.23706 60.3937
RightArm  8.57426 1.41577 -4.78282
RightForeArm  -1.22906 64.7859 25.3552
RightHand  5.12064 21.0624 21.4945
LeftUpLeg  -0.637261 9.75156 11.814
LeftLeg  48.2073 1.7283 2.50951
LeftFoot  -10.7619 0.0629735 0.327932
LeftToes  -6.43926e-010 8.38805e-011 -3.16407e-011
205
root  28.8523 39.975 59.3397 169.37 11.7082 -173.934
RightUpLeg  15.5843 2.57529 10.3339
RightLeg  -4.95195 12.7933 -4.53692
RightFoot  -2.71395 -0.359169 4.51298
RightToes  -1.74624e-010 0 -3.6325e-017
Spine  16.3925 -1.64017 14.7668
Spine1  -2.56665 1.74786 -8.28897
HEad  1.97014 22.4323 -9.40405
LeftShoulder1  3.08475 -4.03453 -34.8896
LeftArm  7.00524 16.2162 -14.1217
LeftForeArm  -34.8866 -59.3154 -21.9462
LeftHand  0.274585 -2.58202 -3.80355
RightShoulder  4.52083 3.01748 60.128
RightArm  7.90057 1.21288 -4.89451
RightForeArm  0.0849324 65.626 26.3652
RightHand  5.37458 20.5604 23.0019
LeftUpLeg  -3.43435 8.43129 9.82999
LeftLeg  43.5216 2.62758 3.07872
LeftFoot  -10.8843 0.057952 1.86956
LeftToes  -6.43926e-010 8.38805e-011 -3.16407e-011
206
root  28.8352 40.0307 58.1678 168.955 12.3931 -174.835
RightUpLeg  18.0198 2.12883 9.23072
RightLeg  -5.49231 13.6575 -5.14971
RightFoot  -4.05295 -0.277353 3.91898
RightToes  -1.74624e-010 0 -3.6325e-017
Spine  16.7451 -1.37564 14.1862
Spine1  -2.64643 1.93757 -9.15291
HEad  1.79662 23.3448 -9.53771
LeftShoulder1  3.06259 -3.97398 -34.9234
LeftArm  6.87675 15.9905 -14.4807
LeftForeArm  -34.3522 -59.1041 -21.7311
LeftHand  0.248653 -3.04168 -3.20218
RightShoulder  4.43091 2.91836 59.8732
RightArm  7.37326 0.839252 -5.02413
RightForeArm  1.53786 66.2932 27.1782
RightHand  5.49149 20.1918 23.8421
LeftUpLeg  -5.59689 7.17927 8.19808
LeftLeg  36.973 1.9168 1.92819
LeftFoot  -10.4181 0.0443001 2.27473
LeftToes  -6.43926e-010 8.38805e-011 -3.16407e-011
207
root  28.8327 40.0299 56.9548 168.563 12.8789 -175.524
RightUpLeg  20.33 1.81074 8.33466
RightLeg  -5.61325 14.3635 -5.73686
RightFoot  -5.63013 -0.228575 3.81225
RightToes  -1.74624e-010 0 -3.6325e-017
Spine  16.872 -1.0657 13.7091
Spine1  -2.51863 2.19278 -9.91484
HEad  1.70508 24.0321 -9.51864
LeftShoulder1  3.03749 -3.89711 -35.0075
LeftArm  6.99597 15.7227 -14.533
LeftForeArm  -34.9892 -59.1965 -21.8434
LeftHand  0.223093 -2.44603 -3.11697
RightShoulder  4.24283 2.67449 59.6288
RightArm  7.10818 0.738355 -5.08559
RightForeArm  2.55663 66.8725 27.9619
RightHand  5.44293 19.3222 24.4736
LeftUpLeg  -6.5324 6.6666 7.43221
LeftLeg  28.3031 0.0481024 0.383572
LeftFoot  -9.96989 0.0340119 2.16632
LeftToes  -6.43926e-010 8.38805e-011 -3.16407e-011
208
root  28.7661 39.9653 55.7051 168.227 12.3632 -175.929
RightUpLeg  22.5971 1.12545 7.30536
RightLeg  -5.57424 14.6911 -5.87569
RightFoot  -7.28175 -0.170868 3.42312
RightToes  -1.74624e-010 0 -3.6325e-017
Spine  16.7881 -1.2143 13.4095
Spine1  -2.43676 1.97244 -10.3768
HEad  1.67979 24.5955 -9.72001
LeftShoulder1  3.01922 -3.82191 -35.1755
LeftArm  7.03313 15.703 -14.4816
LeftForeArm  -34.938 -59.4724 -22.0918
LeftHand  0.187164 -1.91017 -2.82201
RightShoulder  4.22427 2.71013 59.0848
RightArm  7.42508 0.634268 -5.0146
RightForeArm  3.72182 67.2462 28.4262
RightHand  5.32364 18.7772 24.4872
LeftUpLeg  -6.8458 5.36795 6.7213
LeftLeg  18.3658 -0.19912 0.559258
LeftFoot  -9.217 0.046503 0.479304
LeftToes  -6.43926e-010 8.38805e-011 -3.16407e-011
